<?xml version="1.0"?>
<svg xmlns="http://www.w3.org/2000/svg" viewBox="0 0 64 64" width="512" height="512"><g id="Polo_Shirt-2" data-name="Polo Shirt"><path d="M49,21V61H15V21H5.88L8,9,19.3,4.48,26,15a3,3,0,0,1,3-3,2.835,2.835,0,0,1,1.16.24A2.973,2.973,0,0,1,32,15a2.973,2.973,0,0,1,1.84-2.76A2.835,2.835,0,0,1,35,12a3,3,0,0,1,3,3L44.7,4.48,56,9l2.25,12Z" style="fill:#bddbff"/><path d="M56.983,8.816a1,1,0,0,0-.611-.745l-15-6A1.012,1.012,0,0,0,41,2H23a1.012,1.012,0,0,0-.372.071l-15,6a1,1,0,0,0-.613.755l-3,17A1,1,0,0,0,5,27h9V61a1,1,0,0,0,1,1H49a1,1,0,0,0,1-1V26h9a1,1,0,0,0,.983-1.184ZM43.209,4.961l-4.934,7.745a4.005,4.005,0,0,0-2.466-1.617L40.535,4h.273ZM30.861,11.489,25.868,4H38.132l-5,7.493A3.949,3.949,0,0,0,32,12.345,3.852,3.852,0,0,0,30.861,11.489ZM23.192,4h.273l4.726,7.089a4.005,4.005,0,0,0-2.466,1.617L20.791,4.96Zm-17,21,.529-3H14v3ZM48,15V60H16V15H14v5H7.074L8.888,9.722,18.9,5.716l6.255,9.821A1,1,0,0,0,27,15a2,2,0,0,1,2-2,1.88,1.88,0,0,1,.783.167A1.963,1.963,0,0,1,31,15a1,1,0,0,0,2,0,1.976,1.976,0,0,1,1.246-1.846A1.845,1.845,0,0,1,35,13a2,2,0,0,1,2,2,1,1,0,0,0,1.843.537L45.1,5.716l10.02,4.009L57.045,20H50V15Zm2,9V22h7.42l.375,2Z" style="fill:#3d9ae2"/></g></svg>
