<svg height="512" viewBox="0 0 64 64" width="512" xmlns="http://www.w3.org/2000/svg"><g id="Bag-handbag-ladies_bag-3" data-name="Bag-handbag-ladies bag"><path d="m55.72 35.27-1.35 20.13a5.993 5.993 0 0 1 -5.98 5.6h-32.78a5.993 5.993 0 0 1 -5.98-5.6l-1.35-20.13a4.005 4.005 0 0 1 3.72-4.26v7.37a3.048 3.048 0 0 0 .24 1.19l1.72 4.01a4 4 0 0 0 3.68 2.42h28.72a4 4 0 0 0 3.68-2.42l1.72-4.01a3.048 3.048 0 0 0 .24-1.19v-7.37a4.005 4.005 0 0 1 3.72 4.26z" fill="#78b9eb"/><g fill="#006df0"><path d="m55.38 31.58a5.1 5.1 0 0 0 -2.38-1.39v-3.19a1 1 0 0 0 -1-1h-3.43l-12.7-21.78a4.483 4.483 0 0 0 -7.74 0l-12.7 21.78h-3.43a1 1 0 0 0 -1 1v3.19a5.1 5.1 0 0 0 -2.38 1.39 5.041 5.041 0 0 0 -1.33 3.75l1.34 20.14a7.012 7.012 0 0 0 6.98 6.53h32.78a7.012 7.012 0 0 0 6.98-6.53l1.34-20.14a5.041 5.041 0 0 0 -1.33-3.75zm-25.52-26.35a2.477 2.477 0 0 1 4.28 0l12.12 20.77h-28.52zm-16.86 22.77h38v10.38a1.925 1.925 0 0 1 -.16.79l-1.72 4.01a2.991 2.991 0 0 1 -2.76 1.82h-28.72a2.991 2.991 0 0 1 -2.76-1.82l-1.72-4.01a1.925 1.925 0 0 1 -.16-.79zm40.38 27.33a5.02 5.02 0 0 1 -4.99 4.67h-32.78a5.02 5.02 0 0 1 -4.99-4.67l-1.34-20.13a3 3 0 0 1 .8-2.25 3.115 3.115 0 0 1 .92-.66v6.09a4.056 4.056 0 0 0 .32 1.58l1.72 4.01a5.005 5.005 0 0 0 4.6 3.03h28.72a5.005 5.005 0 0 0 4.6-3.03l1.72-4.01a4.056 4.056 0 0 0 .32-1.58v-6.09a3.115 3.115 0 0 1 .92.66 3 3 0 0 1 .8 2.25z"/><path d="m30 41h4v2h-4z"/></g></g></svg>